# xmcd
#
# Track frame offsets:
#	150
#	25070
#	35939
#	57900
#	87068
#	112492
#	129143
#	144244
#	159487
#	176732
#	185463
#	197605
#	210046
#	224709
#	240962
#
# Disc length: 3366 seconds
#
# Revision: 1
# Processed by: cddbd v1.5.2PL0 Copyright (c) Steve Scherf et al.
# Submitted via: audiograbber 1.83.01
#
DISCID=ce0d240f
DTITLE=jimmy witherspoon (US) - eight classic albums cd2
DYEAR=2014
DGENRE=Blues
TTITLE0=no rollin' blues
TTITLE1=good rockin' tonight
TTITLE2=big fine girl
TTITLE3=ain't nobody's bizness if i do
TTITLE4=when i been drinkin'
TTITLE5=stormy monday
TTITLE6=i'll never be free
TTITLE7=she moves me
TTITLE8=card playing blues
TTITLE9=please hurry home
TTITLE10=jelly jelly
TTITLE11=riding blues (rebecca)
TTITLE12=the blues came falling down
TTITLE13=sad life
TTITLE14=cain river blues
EXTD=
EXTT0=
EXTT1=
EXTT2=
EXTT3=
EXTT4=
EXTT5=
EXTT6=
EXTT7=
EXTT8=
EXTT9=
EXTT10=
EXTT11=
EXTT12=
EXTT13=
EXTT14=
PLAYORDER=
